{
  "accessors": [
    {
      "bufferView": 2,
      "componentType": 5126,
      "count": 1104,
      "max": [
        0.17528565227985382,
        -0.001733727054670453,
        0.17528565227985382
      ],
      "min": [
        -0.17528565227985382,
        -0.030739828944206238,
        -0.17528565227985382
      ],
      "type": "VEC3"
    },
    {
      "bufferView": 2,
      "byteOffset": 13248,
      "componentType": 5126,
      "count": 1104,
      "max": [
        0.7173321843147278,
        1.0,
        0.7173321843147278
      ],
      "min": [
        -0.7173321843147278,
        -1.0,
        -0.7173321843147278
      ],
      "type": "VEC3"
    },
    {
      "bufferView": 1,
      "componentType": 5126,
      "count": 1104,
      "max": [
        0.9873133897781372,
        0.9873133897781372
      ],
      "min": [
        0.01268675085157156,
        0.012686735950410366
      ],
      "type": "VEC2"
    },
    {
      "bufferView": 0,
      "componentType": 5125,
      "count": 5568,
      "type": "SCALAR"
    },
    {
      "bufferView": 2,
      "byteOffset": 26496,
      "componentType": 5126,
      "count": 45508,
      "max": [
        0.12269998341798782,
        0.06464918702840805,
        0.07152477651834488
      ],
      "min": [
        -0.07847816497087479,
        -0.05703272670507431,
        -0.07152477651834488
      ],
      "type": "VEC3"
    },
    {
      "bufferView": 2,
      "byteOffset": 572592,
      "componentType": 5126,
      "count": 45508,
      "max": [
        0.9999992847442627,
        1.0,
        0.999950647354126
      ],
      "min": [
        -0.9999204874038696,
        -1.0,
        -0.9999573230743408
      ],
      "type": "VEC3"
    },
    {
      "bufferView": 1,
      "byteOffset": 8832,
      "componentType": 5126,
      "count": 45508,
      "max": [
        0.939668595790863,
        1.0295002460479736
      ],
      "min": [
        0.13530898094177246,
        -0.0502932146191597
      ],
      "type": "VEC2"
    },
    {
      "bufferView": 0,
      "byteOffset": 22272,
      "componentType": 5125,
      "count": 257280,
      "type": "SCALAR"
    },
    {
      "bufferView": 2,
      "byteOffset": 1118688,
      "componentType": 5126,
      "count": 4369,
      "max": [
        0.0756559669971466,
        0.06338411569595337,
        0.068956159055233
      ],
      "min": [
        -0.0756559744477272,
        0.029411831870675087,
        -0.068956159055233
      ],
      "type": "VEC3"
    },
    {
      "bufferView": 2,
      "byteOffset": 1171116,
      "componentType": 5126,
      "count": 4369,
      "max": [
        0.9934856295585632,
        0.44411537051200867,
        0.9945437908172607
      ],
      "min": [
        -0.9934856295585632,
        0.10388555377721786,
        -0.9945437908172607
      ],
      "type": "VEC3"
    },
    {
      "bufferView": 1,
      "byteOffset": 372896,
      "componentType": 5126,
      "count": 4369,
      "max": [
        0.5655685067176819,
        0.8144826292991638
      ],
      "min": [
        0.4083000421524048,
        -0.06555373221635818
      ],
      "type": "VEC2"
    },
    {
      "bufferView": 0,
      "byteOffset": 1051392,
      "componentType": 5125,
      "count": 24576,
      "type": "SCALAR"
    },
    {
      "bufferView": 2,
      "byteOffset": 1223544,
      "componentType": 5126,
      "count": 23804,
      "max": [
        0.044486936181783676,
        0.0305516105145216,
        0.04454314336180687
      ],
      "min": [
        -0.04448694363236427,
        -0.05458105355501175,
        -0.04454314708709717
      ],
      "type": "VEC3"
    },
    {
      "bufferView": 2,
      "byteOffset": 1509192,
      "componentType": 5126,
      "count": 23804,
      "max": [
        0.9999998807907104,
        1.0,
        0.9999563694000244
      ],
      "min": [
        -0.9999998807907104,
        -0.99998939037323,
        -0.9999563694000244
      ],
      "type": "VEC3"
    },
    {
      "bufferView": 1,
      "byteOffset": 407848,
      "componentType": 5126,
      "count": 23804,
      "max": [
        1.0022481679916382,
        0.8585342168807983
      ],
      "min": [
        -0.002248111879453063,
        0.011537187732756138
      ],
      "type": "VEC2"
    },
    {
      "bufferView": 0,
      "byteOffset": 1149696,
      "componentType": 5125,
      "count": 113664,
      "type": "SCALAR"
    }
  ],
  "asset": {
    "extras": {
      "author": "samhoward95 (https://sketchfab.com/samhoward95)",
      "license": "CC-BY-4.0 (http://creativecommons.org/licenses/by/4.0/)",
      "source": "https://sketchfab.com/3d-models/coffee-cup-a3a2d6300e954690acb64f93462526dd",
      "title": "Coffee Cup"
    },
    "generator": "Sketchfab-12.66.0",
    "version": "2.0"
  },
  "bufferViews": [
    {
      "buffer": 0,
      "byteLength": 1604352,
      "name": "floatBufferViews",
      "target": 34963
    },
    {
      "buffer": 0,
      "byteLength": 598280,
      "byteOffset": 1604352,
      "byteStride": 8,
      "name": "floatBufferViews",
      "target": 34962
    },
    {
      "buffer": 0,
      "byteLength": 1794840,
      "byteOffset": 2202632,
      "byteStride": 12,
      "name": "floatBufferViews",
      "target": 34962
    }
  ],
  "buffers": [
    {
      "byteLength": 3997472,
      "uri": "scene.bin"
    }
  ],
  "extensionsUsed": [
    "KHR_materials_transmission"
  ],
  "materials": [
    {
      "alphaMode": "BLEND",
      "doubleSided": true,
      "extensions": {
        "KHR_materials_transmission": {
          "transmissionFactor": 1.0
        }
      },
      "name": "Material.006",
      "pbrMetallicRoughness": {
        "baseColorFactor": [
          1.0,
          1.0,
          1.0,
          0.25
        ],
        "metallicFactor": 0.0,
        "roughnessFactor": 0.0
      }
    },
    {
      "alphaMode": "BLEND",
      "doubleSided": true,
      "extensions": {
        "KHR_materials_transmission": {
          "transmissionFactor": 1.0
        }
      },
      "name": "Glass",
      "pbrMetallicRoughness": {
        "baseColorFactor": [
          1.0,
          1.0,
          1.0,
          0.25
        ],
        "metallicFactor": 0.0,
        "roughnessFactor": 0.0
      }
    },
    {
      "alphaMode": "BLEND",
      "doubleSided": true,
      "extensions": {
        "KHR_materials_transmission": {
          "transmissionFactor": 0.9496485659911594
        }
      },
      "name": "Condensation",
      "pbrMetallicRoughness": {
        "baseColorFactor": [
          1.0,
          1.0,
          1.0,
          0.25
        ],
        "metallicFactor": 0.0,
        "roughnessFactor": 0.2
      }
    },
    {
      "doubleSided": true,
      "extensions": {
        "KHR_materials_transmission": {
          "transmissionFactor": 0.0
        }
      },
      "name": "Coffee",
      "pbrMetallicRoughness": {
        "baseColorFactor": [
          0.2953043464009595,
          0.11759909345581868,
          0.030774183072489622,
          1.0
        ],
        "metallicFactor": 0.0,
        "roughnessFactor": 0.0
      }
    }
  ],
  "meshes": [
    {
      "name": "Object_0",
      "primitives": [
        {
          "attributes": {
            "NORMAL": 1,
            "POSITION": 0,
            "TEXCOORD_0": 2
          },
          "indices": 3,
          "material": 0,
          "mode": 4
        }
      ]
    },
    {
      "name": "Object_1",
      "primitives": [
        {
          "attributes": {
            "NORMAL": 5,
            "POSITION": 4,
            "TEXCOORD_0": 6
          },
          "indices": 7,
          "material": 1,
          "mode": 4
        }
      ]
    },
    {
      "name": "Object_2",
      "primitives": [
        {
          "attributes": {
            "NORMAL": 9,
            "POSITION": 8,
            "TEXCOORD_0": 10
          },
          "indices": 11,
          "material": 2,
          "mode": 4
        }
      ]
    },
    {
      "name": "Object_3",
      "primitives": [
        {
          "attributes": {
            "NORMAL": 13,
            "POSITION": 12,
            "TEXCOORD_0": 14
          },
          "indices": 15,
          "material": 3,
          "mode": 4
        }
      ]
    }
  ],
  "nodes": [
    {
      "children": [
        1
      ],
      "matrix": [
        1.0,
        0.0,
        0.0,
        0.0,
        0.0,
        2.220446049250313e-16,
        -1.0,
        0.0,
        0.0,
        1.0,
        2.220446049250313e-16,
        0.0,
        0.0,
        0.0,
        0.0,
        1.0
      ],
      "name": "Sketchfab_model"
    },
    {
      "children": [
        2
      ],
      "name": "root"
    },
    {
      "children": [
        3
      ],
      "matrix": [
        1.0,
        0.0,
        0.0,
        0.0,
        0.0,
        2.220446049250313e-16,
        1.0,
        0.0,
        0.0,
        -1.0,
        2.220446049250313e-16,
        0.0,
        0.0,
        0.0,
        0.0,
        1.0
      ],
      "name": "GLTF_SceneRootNode"
    },
    {
      "children": [
        4,
        5
      ],
      "matrix": [
        0.6621549725532532,
        0.0,
        0.0,
        0.0,
        0.0,
        0.6621549725532532,
        0.0,
        0.0,
        0.0,
        0.0,
        0.6621549725532532,
        0.0,
        0.0,
        0.0,
        0.0,
        1.0
      ],
      "name": "Saucer_4"
    },
    {
      "mesh": 0,
      "name": "Object_4"
    },
    {
      "children": [
        6,
        7,
        8
      ],
      "matrix": [
        -0.7913656851313119,
        0.0,
        1.2862761735058492,
        0.0,
        -0.0,
        1.5102205276489258,
        0.0,
        0.0,
        -1.2862761735058492,
        0.0,
        -0.7913656851313119,
        0.0,
        0.0,
        0.061083901673555374,
        0.0,
        1.0
      ],
      "name": "Cup_3"
    },
    {
      "mesh": 1,
      "name": "Object_6"
    },
    {
      "mesh": 2,
      "name": "Object_7"
    },
    {
      "children": [
        9
      ],
      "matrix": [
        1.5941027402877808,
        0.0,
        0.0,
        0.0,
        0.0,
        1.0,
        0.0,
        0.0,
        0.0,
        0.0,
        1.4511284828186035,
        0.0,
        0.0,
        0.0,
        0.0,
        1.0
      ],
      "name": "Liquid_2"
    },
    {
      "mesh": 3,
      "name": "Object_9"
    }
  ],
  "scene": 0,
  "scenes": [
    {
      "name": "Sketchfab_Scene",
      "nodes": [
        0
      ]
    }
  ]
}
