{
  "accessors": [
    {
      "bufferView": 2,
      "componentType": 5126,
      "count": 65532,
      "max": [
        0.1486256867647171,
        0.14844565093517303,
        0.8060519099235535
      ],
      "min": [
        -0.14826560020446777,
        -0.14844563603401184,
        0.012954791076481342
      ],
      "type": "VEC3"
    },
    {
      "bufferView": 2,
      "byteOffset": 786384,
      "componentType": 5126,
      "count": 65532,
      "max": [
        1.0,
        0.9999999403953552,
        0.9999989867210388
      ],
      "min": [
        -1.0,
        -0.9999999403953552,
        -0.8142093420028687
      ],
      "type": "VEC3"
    },
    {
      "bufferView": 1,
      "componentType": 5126,
      "count": 65532,
      "max": [
        1.2594701051712036,
        0.9796344041824341
      ],
      "min": [
        0.0,
        0.011216327548027039
      ],
      "type": "VEC2"
    },
    {
      "bufferView": 0,
      "componentType": 5125,
      "count": 374463,
      "type": "SCALAR"
    },
    {
      "bufferView": 2,
      "byteOffset": 1572768,
      "componentType": 5126,
      "count": 42275,
      "max": [
        0.14696118235588074,
        0.14696119725704193,
        0.8056715130805969
      ],
      "min": [
        -0.14696119725704193,
        -0.14696118235588074,
        0.012954792007803917
      ],
      "type": "VEC3"
    },
    {
      "bufferView": 2,
      "byteOffset": 2080068,
      "componentType": 5126,
      "count": 42275,
      "max": [
        0.9999999403953552,
        0.9999999403953552,
        0.9999989867210388
      ],
      "min": [
        -0.9999999403953552,
        -0.9999999403953552,
        -0.8142089247703552
      ],
      "type": "VEC3"
    },
    {
      "bufferView": 1,
      "byteOffset": 524256,
      "componentType": 5126,
      "count": 42275,
      "max": [
        1.259467363357544,
        0.9925336837768555
      ],
      "min": [
        0.0,
        0.011216327548027039
      ],
      "type": "VEC2"
    },
    {
      "bufferView": 0,
      "byteOffset": 1497852,
      "componentType": 5125,
      "count": 241851,
      "type": "SCALAR"
    },
    {
      "bufferView": 2,
      "byteOffset": 2587368,
      "componentType": 5126,
      "count": 13452,
      "max": [
        0.0869726911187172,
        0.08679264038801193,
        0.9316567778587341
      ],
      "min": [
        -0.08661258220672607,
        -0.08679263293743134,
        0.8060516715049744
      ],
      "type": "VEC3"
    },
    {
      "bufferView": 2,
      "byteOffset": 2748792,
      "componentType": 5126,
      "count": 13452,
      "max": [
        0.9999983310699463,
        0.9999983310699463,
        0.9355150461196899
      ],
      "min": [
        -0.9999983906745911,
        -0.9999983310699463,
        -0.9582728743553162
      ],
      "type": "VEC3"
    },
    {
      "bufferView": 1,
      "byteOffset": 862456,
      "componentType": 5126,
      "count": 13452,
      "max": [
        1.0000001192092896,
        0.9313244819641113
      ],
      "min": [
        0.0,
        0.7464590072631836
      ],
      "type": "VEC2"
    },
    {
      "bufferView": 0,
      "byteOffset": 2465256,
      "componentType": 5125,
      "count": 77568,
      "type": "SCALAR"
    },
    {
      "bufferView": 2,
      "byteOffset": 2910216,
      "componentType": 5126,
      "count": 17340,
      "max": [
        0.04812244325876236,
        0.0479423888027668,
        1.003170371055603
      ],
      "min": [
        -0.047762349247932434,
        -0.047942399978637695,
        0.931656539440155
      ],
      "type": "VEC3"
    },
    {
      "bufferView": 2,
      "byteOffset": 3118296,
      "componentType": 5126,
      "count": 17340,
      "max": [
        0.999994695186615,
        0.9999946355819702,
        0.9988152980804443
      ],
      "min": [
        -0.999994695186615,
        -0.9999946355819702,
        -0.9996958374977112
      ],
      "type": "VEC3"
    },
    {
      "bufferView": 1,
      "byteOffset": 970072,
      "componentType": 5126,
      "count": 17340,
      "max": [
        1.0000001192092896,
        1.002790093421936
      ],
      "min": [
        0.0,
        0.9004356861114502
      ],
      "type": "VEC2"
    },
    {
      "bufferView": 0,
      "byteOffset": 2775528,
      "componentType": 5125,
      "count": 85248,
      "type": "SCALAR"
    },
    {
      "bufferView": 2,
      "byteOffset": 3326376,
      "componentType": 5126,
      "count": 32754,
      "max": [
        0.9935953617095947,
        0.9935952425003052,
        1.0000001192092896
      ],
      "min": [
        -0.9935953617095947,
        -0.9935953617095947,
        -1.0000001192092896
      ],
      "type": "VEC3"
    },
    {
      "bufferView": 2,
      "byteOffset": 3719424,
      "componentType": 5126,
      "count": 32754,
      "max": [
        0.9999244809150696,
        0.9999244213104248,
        0.0005440210807137191
      ],
      "min": [
        -0.9999244809150696,
        -0.9999244809150696,
        -0.0004838246386498213
      ],
      "type": "VEC3"
    },
    {
      "bufferView": 1,
      "byteOffset": 1108792,
      "componentType": 5126,
      "count": 32754,
      "max": [
        1.0000001192092896,
        0.8788948059082031
      ],
      "min": [
        0.0,
        0.06785109639167786
      ],
      "type": "VEC2"
    },
    {
      "bufferView": 0,
      "byteOffset": 3116520,
      "componentType": 5125,
      "count": 49152,
      "type": "SCALAR"
    }
  ],
  "asset": {
    "extras": {
      "author": "Prakash.G (https://sketchfab.com/Prakash.G)",
      "license": "CC-BY-4.0 (http://creativecommons.org/licenses/by/4.0/)",
      "source": "https://sketchfab.com/3d-models/coca-cola-bottle-ecacc2f593da4341ac90caac84386511",
      "title": "coca-cola bottle"
    },
    "generator": "Sketchfab-16.0.0",
    "version": "2.0"
  },
  "bufferViews": [
    {
      "buffer": 0,
      "byteLength": 3313128,
      "name": "floatBufferViews",
      "target": 34963
    },
    {
      "buffer": 0,
      "byteLength": 1370824,
      "byteOffset": 3313128,
      "byteStride": 8,
      "name": "floatBufferViews",
      "target": 34962
    },
    {
      "buffer": 0,
      "byteLength": 4112472,
      "byteOffset": 4683952,
      "byteStride": 12,
      "name": "floatBufferViews",
      "target": 34962
    }
  ],
  "buffers": [
    {
      "byteLength": 8796424,
      "uri": "scene.bin"
    }
  ],
  "extensionsUsed": [
    "KHR_materials_specular"
  ],
  "images": [
    {
      "uri": "textures/Material.006_baseColor.jpeg"
    }
  ],
  "materials": [
    {
      "doubleSided": true,
      "name": "black_coca_cola",
      "pbrMetallicRoughness": {
        "baseColorFactor": [
          0.0,
          0.0,
          0.0,
          1.0
        ],
        "metallicFactor": 0.4590066072106124,
        "roughnessFactor": 0.0
      }
    },
    {
      "doubleSided": true,
      "name": "bottle",
      "pbrMetallicRoughness": {
        "baseColorFactor": [
          0.8,
          0.8,
          0.8,
          1.0
        ],
        "roughnessFactor": 0.0
      }
    },
    {
      "doubleSided": true,
      "name": "bottle_cap",
      "pbrMetallicRoughness": {
        "baseColorFactor": [
          1.0,
          0.013283400000000006,
          0.011072400000000001,
          1.0
        ],
        "roughnessFactor": 0.44973381406971913
      }
    },
    {
      "doubleSided": true,
      "extensions": {
        "KHR_materials_specular": {
          "specularColorFactor": [
            1.0,
            1.0,
            1.0
          ],
          "specularFactor": 0.0
        }
      },
      "name": "Material.006",
      "pbrMetallicRoughness": {
        "baseColorTexture": {
          "index": 0
        },
        "metallicFactor": 0.0,
        "roughnessFactor": 0.0
      }
    }
  ],
  "meshes": [
    {
      "name": "coca cola bottle_black coca cola_0",
      "primitives": [
        {
          "attributes": {
            "NORMAL": 1,
            "POSITION": 0,
            "TEXCOORD_0": 2
          },
          "indices": 3,
          "material": 0,
          "mode": 4
        }
      ]
    },
    {
      "name": "coca cola bottle_black coca cola_0",
      "primitives": [
        {
          "attributes": {
            "NORMAL": 5,
            "POSITION": 4,
            "TEXCOORD_0": 6
          },
          "indices": 7,
          "material": 0,
          "mode": 4
        }
      ]
    },
    {
      "name": "coca cola bottle_bottle_0",
      "primitives": [
        {
          "attributes": {
            "NORMAL": 9,
            "POSITION": 8,
            "TEXCOORD_0": 10
          },
          "indices": 11,
          "material": 1,
          "mode": 4
        }
      ]
    },
    {
      "name": "coca cola bottle_bottle cap_0",
      "primitives": [
        {
          "attributes": {
            "NORMAL": 13,
            "POSITION": 12,
            "TEXCOORD_0": 14
          },
          "indices": 15,
          "material": 2,
          "mode": 4
        }
      ]
    },
    {
      "name": "logo_Material.006_0",
      "primitives": [
        {
          "attributes": {
            "NORMAL": 17,
            "POSITION": 16,
            "TEXCOORD_0": 18
          },
          "indices": 19,
          "material": 3,
          "mode": 4
        }
      ]
    }
  ],
  "nodes": [
    {
      "children": [
        1
      ],
      "matrix": [
        1.0,
        0.0,
        0.0,
        0.0,
        0.0,
        2.220446049250313e-16,
        -1.0,
        0.0,
        0.0,
        1.0,
        2.220446049250313e-16,
        0.0,
        0.0,
        0.0,
        0.0,
        1.0
      ],
      "name": "Sketchfab_model"
    },
    {
      "children": [
        2
      ],
      "matrix": [
        0.009999999776482582,
        0.0,
        0.0,
        0.0,
        0.0,
        0.0,
        0.009999999776482582,
        0.0,
        0.0,
        -0.009999999776482582,
        0.0,
        0.0,
        0.0,
        0.0,
        0.0,
        1.0
      ],
      "name": "coca-cola bottle.fbx"
    },
    {
      "children": [
        3
      ],
      "name": "RootNode"
    },
    {
      "children": [
        4,
        5,
        6,
        7,
        8
      ],
      "matrix": [
        99.0,
        0.0,
        0.0,
        0.0,
        -0.0,
        -2.793086694730107e-05,
        -98.99999999999606,
        0.0,
        0.0,
        99.99999999999602,
        -2.8212996916465727e-05,
        0.0,
        -0.017824675887823105,
        -0.03804173320531845,
        -179.595703125,
        1.0
      ],
      "name": "coca cola bottle"
    },
    {
      "mesh": 0,
      "name": "coca cola bottle_black coca cola_0"
    },
    {
      "mesh": 1,
      "name": "coca cola bottle_black coca cola_0"
    },
    {
      "mesh": 2,
      "name": "coca cola bottle_bottle_0"
    },
    {
      "mesh": 3,
      "name": "coca cola bottle_bottle cap_0"
    },
    {
      "children": [
        9
      ],
      "matrix": [
        0.14720329642295837,
        0.0,
        0.0,
        0.0,
        0.0,
        0.1472032964229564,
        2.398367098842082e-08,
        0.0,
        0.0,
        -1.807630833270189e-08,
        0.11094599217176289,
        0.0,
        0.0013798202853649855,
        0.0007489919662475586,
        0.5384335517883301,
        1.0
      ],
      "name": "logo"
    },
    {
      "mesh": 4,
      "name": "logo_Material.006_0"
    }
  ],
  "samplers": [
    {
      "magFilter": 9729,
      "minFilter": 9987,
      "wrapS": 10497,
      "wrapT": 10497
    }
  ],
  "scene": 0,
  "scenes": [
    {
      "name": "Sketchfab_Scene",
      "nodes": [
        0
      ]
    }
  ],
  "textures": [
    {
      "sampler": 0,
      "source": 0
    }
  ]
}
