{
  "accessors": [
    {
      "bufferView": 2,
      "componentType": 5126,
      "count": 156,
      "max": [
        1.5125316381454468,
        25.74380111694336,
        1.5220544338226318
      ],
      "min": [
        -1.5125327110290527,
        23.769514083862305,
        -1.5203394889831543
      ],
      "type": "VEC3"
    },
    {
      "bufferView": 2,
      "byteOffset": 1872,
      "componentType": 5126,
      "count": 156,
      "max": [
        1.0,
        1.0,
        1.0
      ],
      "min": [
        -1.0,
        -0.9937185645103455,
        -1.0
      ],
      "type": "VEC3"
    },
    {
      "bufferView": 3,
      "componentType": 5126,
      "count": 156,
      "max": [
        1.0,
        0.2214777171611786,
        1.0,
        1.0
      ],
      "min": [
        -1.0,
        -0.22218851745128632,
        -1.0,
        1.0
      ],
      "type": "VEC4"
    },
    {
      "bufferView": 1,
      "componentType": 5126,
      "count": 156,
      "max": [
        0.5796611905097961,
        0.8595985770225525
      ],
      "min": [
        0.0099257230758667,
        0.7520184516906738
      ],
      "type": "VEC2"
    },
    {
      "bufferView": 0,
      "componentType": 5125,
      "count": 444,
      "type": "SCALAR"
    },
    {
      "bufferView": 2,
      "byteOffset": 3744,
      "componentType": 5126,
      "count": 319,
      "max": [
        4.094863414764404,
        25.049251556396484,
        4.094863414764404
      ],
      "min": [
        -4.094864368438721,
        21.165048599243164,
        -4.094864368438721
      ],
      "type": "VEC3"
    },
    {
      "bufferView": 2,
      "byteOffset": 7572,
      "componentType": 5126,
      "count": 319,
      "max": [
        0.9997105598449707,
        0.9957391619682312,
        0.9997105598449707
      ],
      "min": [
        -0.9997105598449707,
        -1.0,
        -0.9997105598449707
      ],
      "type": "VEC3"
    },
    {
      "bufferView": 3,
      "byteOffset": 2496,
      "componentType": 5126,
      "count": 319,
      "max": [
        1.0,
        0.2851150333881378,
        1.0,
        1.0
      ],
      "min": [
        -0.9999916553497314,
        -0.28511518239974976,
        -1.0,
        1.0
      ],
      "type": "VEC4"
    },
    {
      "bufferView": 1,
      "byteOffset": 1248,
      "componentType": 5126,
      "count": 319,
      "max": [
        0.9969848990440369,
        0.9387819766998291
      ],
      "min": [
        0.0023569464683532715,
        0.6551832556724548
      ],
      "type": "VEC2"
    },
    {
      "bufferView": 0,
      "byteOffset": 1776,
      "componentType": 5125,
      "count": 1029,
      "type": "SCALAR"
    },
    {
      "bufferView": 2,
      "byteOffset": 11400,
      "componentType": 5126,
      "count": 403,
      "max": [
        4.587316989898682,
        23.16614532470703,
        4.587317943572998
      ],
      "min": [
        -4.587317943572998,
        -0.02454809844493866,
        -4.5873188972473145
      ],
      "type": "VEC3"
    },
    {
      "bufferView": 2,
      "byteOffset": 16236,
      "componentType": 5126,
      "count": 403,
      "max": [
        1.0,
        0.9903361797332764,
        1.0
      ],
      "min": [
        -1.0,
        -0.9959033727645874,
        -1.0
      ],
      "type": "VEC3"
    },
    {
      "bufferView": 3,
      "byteOffset": 7600,
      "componentType": 5126,
      "count": 403,
      "max": [
        1.0,
        0.16967301070690155,
        1.0,
        1.0
      ],
      "min": [
        -1.0,
        -0.17972154915332794,
        -1.0,
        1.0
      ],
      "type": "VEC4"
    },
    {
      "bufferView": 1,
      "byteOffset": 3800,
      "componentType": 5126,
      "count": 403,
      "max": [
        0.9985417127609253,
        0.9989364147186279
      ],
      "min": [
        0.0023566484451293945,
        0.0035407934337854385
      ],
      "type": "VEC2"
    },
    {
      "bufferView": 0,
      "byteOffset": 5892,
      "componentType": 5125,
      "count": 1764,
      "type": "SCALAR"
    }
  ],
  "asset": {
    "extras": {
      "author": "Nick Scott (https://sketchfab.com/Nickjjscott)",
      "license": "CC-BY-4.0 (http://creativecommons.org/licenses/by/4.0/)",
      "source": "https://sketchfab.com/3d-models/water-bottle-c0e9a0ceee16472787a61dca1bcec3ae",
      "title": "Water Bottle"
    },
    "generator": "Sketchfab-16.0.0",
    "version": "2.0"
  },
  "bufferViews": [
    {
      "buffer": 0,
      "byteLength": 12948,
      "name": "floatBufferViews",
      "target": 34963
    },
    {
      "buffer": 0,
      "byteLength": 7024,
      "byteOffset": 12948,
      "byteStride": 8,
      "name": "floatBufferViews",
      "target": 34962
    },
    {
      "buffer": 0,
      "byteLength": 21072,
      "byteOffset": 19972,
      "byteStride": 12,
      "name": "floatBufferViews",
      "target": 34962
    },
    {
      "buffer": 0,
      "byteLength": 14048,
      "byteOffset": 41044,
      "byteStride": 16,
      "name": "floatBufferViews",
      "target": 34962
    }
  ],
  "buffers": [
    {
      "byteLength": 55092,
      "uri": "scene.bin"
    }
  ],
  "images": [
    {
      "uri": "textures/SM_WaterBottle_MAT_baseColor.png"
    },
    {
      "uri": "textures/SM_WaterBottle_MAT_metallicRoughness.png"
    },
    {
      "uri": "textures/SM_WaterBottle_MAT_normal.png"
    }
  ],
  "materials": [
    {
      "alphaMode": "BLEND",
      "doubleSided": true,
      "name": "SM_WaterBottle_MAT",
      "normalTexture": {
        "index": 2
      },
      "occlusionTexture": {
        "index": 1
      },
      "pbrMetallicRoughness": {
        "baseColorTexture": {
          "index": 0
        },
        "metallicFactor": 0.0,
        "metallicRoughnessTexture": {
          "index": 1
        }
      }
    }
  ],
  "meshes": [
    {
      "name": "SM_Tip_L_SM_WaterBottle_MAT_0",
      "primitives": [
        {
          "attributes": {
            "NORMAL": 1,
            "POSITION": 0,
            "TANGENT": 2,
            "TEXCOORD_0": 3
          },
          "indices": 4,
          "material": 0,
          "mode": 4
        }
      ]
    },
    {
      "name": "SM_Cap_L_SM_WaterBottle_MAT_0",
      "primitives": [
        {
          "attributes": {
            "NORMAL": 6,
            "POSITION": 5,
            "TANGENT": 7,
            "TEXCOORD_0": 8
          },
          "indices": 9,
          "material": 0,
          "mode": 4
        }
      ]
    },
    {
      "name": "SM_Body_L_SM_WaterBottle_MAT_0",
      "primitives": [
        {
          "attributes": {
            "NORMAL": 11,
            "POSITION": 10,
            "TANGENT": 12,
            "TEXCOORD_0": 13
          },
          "indices": 14,
          "material": 0,
          "mode": 4
        }
      ]
    }
  ],
  "nodes": [
    {
      "children": [
        1
      ],
      "matrix": [
        1.0,
        0.0,
        0.0,
        0.0,
        0.0,
        2.220446049250313e-16,
        -1.0,
        0.0,
        0.0,
        1.0,
        2.220446049250313e-16,
        0.0,
        0.0,
        0.0,
        0.0,
        1.0
      ],
      "name": "Sketchfab_model"
    },
    {
      "children": [
        2
      ],
      "matrix": [
        1.0,
        0.0,
        0.0,
        0.0,
        0.0,
        0.0,
        1.0,
        0.0,
        0.0,
        -1.0,
        0.0,
        0.0,
        0.0,
        0.0,
        0.0,
        1.0
      ],
      "name": "d8594dcf704d463db9201e87299eca26.fbx"
    },
    {
      "children": [
        3
      ],
      "name": "RootNode"
    },
    {
      "children": [
        4
      ],
      "name": "Bottle"
    },
    {
      "children": [
        5,
        7,
        9
      ],
      "name": "SM_Bottle_L"
    },
    {
      "children": [
        6
      ],
      "name": "SM_Tip_L"
    },
    {
      "mesh": 0,
      "name": "SM_Tip_L_SM_WaterBottle_MAT_0"
    },
    {
      "children": [
        8
      ],
      "name": "SM_Cap_L"
    },
    {
      "mesh": 1,
      "name": "SM_Cap_L_SM_WaterBottle_MAT_0"
    },
    {
      "children": [
        10
      ],
      "name": "SM_Body_L"
    },
    {
      "mesh": 2,
      "name": "SM_Body_L_SM_WaterBottle_MAT_0"
    }
  ],
  "samplers": [
    {
      "magFilter": 9729,
      "minFilter": 9987,
      "wrapS": 10497,
      "wrapT": 10497
    }
  ],
  "scene": 0,
  "scenes": [
    {
      "name": "Sketchfab_Scene",
      "nodes": [
        0
      ]
    }
  ],
  "textures": [
    {
      "sampler": 0,
      "source": 0
    },
    {
      "sampler": 0,
      "source": 1
    },
    {
      "sampler": 0,
      "source": 2
    }
  ]
}
