{
  "accessors": [
    {
      "bufferView": 2,
      "componentType": 5126,
      "count": 3527,
      "max": [
        6.440506935119629,
        6.883121967315674,
        3.4598963260650635
      ],
      "min": [
        -3.3553171157836914,
        -7.2366557121276855,
        -3.4595682621002197
      ],
      "type": "VEC3"
    },
    {
      "bufferView": 2,
      "byteOffset": 42324,
      "componentType": 5126,
      "count": 3527,
      "max": [
        0.9999992847442627,
        1.0,
        0.999998927116394
      ],
      "min": [
        -0.9999996423721313,
        -1.0,
        -0.999998927116394
      ],
      "type": "VEC3"
    },
    {
      "bufferView": 3,
      "componentType": 5126,
      "count": 3527,
      "max": [
        0.999998927116394,
        0.9720900654792786,
        0.9999995827674866,
        1.0
      ],
      "min": [
        -0.9999989867210388,
        -0.9737719893455505,
        -0.9999999403953552,
        1.0
      ],
      "type": "VEC4"
    },
    {
      "bufferView": 1,
      "componentType": 5126,
      "count": 3527,
      "max": [
        0.9943291544914246,
        0.9958624839782715
      ],
      "min": [
        0.0038902461528778076,
        0.0031471848487854004
      ],
      "type": "VEC2"
    },
    {
      "bufferView": 0,
      "componentType": 5125,
      "count": 19776,
      "type": "SCALAR"
    }
  ],
  "asset": {
    "extras": {
      "author": "Bob (https://sketchfab.com/MeBob)",
      "license": "CC-BY-4.0 (http://creativecommons.org/licenses/by/4.0/)",
      "source": "https://sketchfab.com/3d-models/beer-mug-glass-52bd46f46979445a8092e35c36a9c4fb",
      "title": "Beer Mug Glass"
    },
    "generator": "Sketchfab-12.87.0",
    "version": "2.0"
  },
  "bufferViews": [
    {
      "buffer": 0,
      "byteLength": 79104,
      "name": "floatBufferViews",
      "target": 34963
    },
    {
      "buffer": 0,
      "byteLength": 28216,
      "byteOffset": 79104,
      "byteStride": 8,
      "name": "floatBufferViews",
      "target": 34962
    },
    {
      "buffer": 0,
      "byteLength": 84648,
      "byteOffset": 107320,
      "byteStride": 12,
      "name": "floatBufferViews",
      "target": 34962
    },
    {
      "buffer": 0,
      "byteLength": 56432,
      "byteOffset": 191968,
      "byteStride": 16,
      "name": "floatBufferViews",
      "target": 34962
    }
  ],
  "buffers": [
    {
      "byteLength": 248400,
      "uri": "scene.bin"
    }
  ],
  "images": [
    {
      "uri": "textures/Scene_-_Root_baseColor.png"
    },
    {
      "uri": "textures/Scene_-_Root_metallicRoughness.png"
    },
    {
      "uri": "textures/Scene_-_Root_normal.png"
    }
  ],
  "materials": [
    {
      "alphaMode": "BLEND",
      "doubleSided": true,
      "name": "Scene_-_Root",
      "normalTexture": {
        "index": 2
      },
      "pbrMetallicRoughness": {
        "baseColorFactor": [
          0.22,
          0.22,
          0.22,
          1.0
        ],
        "baseColorTexture": {
          "index": 0
        },
        "metallicRoughnessTexture": {
          "index": 1
        }
      }
    }
  ],
  "meshes": [
    {
      "name": "Plane__0",
      "primitives": [
        {
          "attributes": {
            "NORMAL": 1,
            "POSITION": 0,
            "TANGENT": 2,
            "TEXCOORD_0": 3
          },
          "indices": 4,
          "material": 0,
          "mode": 4
        }
      ]
    }
  ],
  "nodes": [
    {
      "children": [
        1
      ],
      "matrix": [
        0.05000000074505806,
        0.0,
        0.0,
        0.0,
        0.0,
        1.1102230411687688e-17,
        -0.05000000074505806,
        0.0,
        0.0,
        0.05000000074505806,
        1.1102230411687688e-17,
        0.0,
        0.0,
        0.0,
        0.0,
        1.0
      ],
      "name": "Sketchfab_model"
    },
    {
      "children": [
        2
      ],
      "matrix": [
        0.009999999776482582,
        0.0,
        0.0,
        0.0,
        0.0,
        0.0,
        0.009999999776482582,
        0.0,
        0.0,
        -0.009999999776482582,
        0.0,
        0.0,
        0.0,
        0.0,
        0.0,
        1.0
      ],
      "name": "BeerMugGlass.fbx"
    },
    {
      "children": [
        3
      ],
      "name": "RootNode"
    },
    {
      "children": [
        4
      ],
      "matrix": [
        31.69296646118164,
        0.0,
        0.0,
        0.0,
        0.0,
        29.399007797241183,
        1.2850714450700463e-06,
        0.0,
        0.0,
        -1.385343562943273e-06,
        31.69296646118161,
        0.0,
        -10.294363021850586,
        209.7178192138672,
        0.0004584983689710498,
        1.0
      ],
      "name": "Plane"
    },
    {
      "mesh": 0,
      "name": "Plane__0"
    }
  ],
  "samplers": [
    {
      "magFilter": 9729,
      "minFilter": 9987,
      "wrapS": 10497,
      "wrapT": 10497
    }
  ],
  "scene": 0,
  "scenes": [
    {
      "name": "Sketchfab_Scene",
      "nodes": [
        0
      ]
    }
  ],
  "textures": [
    {
      "sampler": 0,
      "source": 0
    },
    {
      "sampler": 0,
      "source": 1
    },
    {
      "sampler": 0,
      "source": 2
    }
  ]
}
