{
  "accessors": [
    {
      "bufferView": 2,
      "componentType": 5126,
      "count": 486,
      "max": [
        1.4912258386611938,
        1.4912258386611938,
        2.4746339321136475
      ],
      "min": [
        -1.4912258386611938,
        -1.4912258386611938,
        -2.6050491333007813
      ],
      "type": "VEC3"
    },
    {
      "bufferView": 2,
      "byteOffset": 5832,
      "componentType": 5126,
      "count": 486,
      "max": [
        0.99527907371521,
        0.9954310655593872,
        0.7555694580078125
      ],
      "min": [
        -0.9954310655593872,
        -0.9954310655593872,
        -0.7254282236099243
      ],
      "type": "VEC3"
    },
    {
      "bufferView": 1,
      "componentType": 5126,
      "count": 486,
      "max": [
        0.9927342534065247,
        1.0
      ],
      "min": [
        0.0,
        0.0
      ],
      "type": "VEC2"
    },
    {
      "bufferView": 0,
      "componentType": 5125,
      "count": 918,
      "type": "SCALAR"
    },
    {
      "bufferView": 2,
      "byteOffset": 11664,
      "componentType": 5126,
      "count": 176,
      "max": [
        1.0,
        1.0,
        1.0
      ],
      "min": [
        -1.0,
        -1.0,
        -1.0
      ],
      "type": "VEC3"
    },
    {
      "bufferView": 2,
      "byteOffset": 13776,
      "componentType": 5126,
      "count": 176,
      "max": [
        0.9974521398544312,
        0.9974521398544312,
        0.0
      ],
      "min": [
        -0.9974521398544312,
        -0.9974521398544312,
        0.0
      ],
      "type": "VEC3"
    },
    {
      "bufferView": 3,
      "componentType": 5126,
      "count": 176,
      "max": [
        1.5548154408406845e-07,
        7.143943037135614e-08,
        -1.0,
        1.0
      ],
      "min": [
        -1.5733431268927234e-07,
        -7.86673197694654e-08,
        -1.0,
        1.0
      ],
      "type": "VEC4"
    },
    {
      "bufferView": 1,
      "byteOffset": 3888,
      "componentType": 5126,
      "count": 176,
      "max": [
        1.0,
        0.70710688829422
      ],
      "min": [
        -5.9604641222676946e-08,
        -4.371138828673793e-08
      ],
      "type": "VEC2"
    },
    {
      "bufferView": 0,
      "byteOffset": 3672,
      "componentType": 5125,
      "count": 264,
      "type": "SCALAR"
    },
    {
      "bufferView": 2,
      "byteOffset": 15888,
      "componentType": 5126,
      "count": 65532,
      "max": [
        1.5947275161743164,
        1.595118522644043,
        0.09521866589784622
      ],
      "min": [
        -1.595118522644043,
        -1.595118522644043,
        -0.21073009073734283
      ],
      "type": "VEC3"
    },
    {
      "bufferView": 2,
      "byteOffset": 802272,
      "componentType": 5126,
      "count": 65532,
      "max": [
        0.99937903881073,
        0.9998657703399658,
        0.9999659657478333
      ],
      "min": [
        -0.9998656511306763,
        -0.9998656511306763,
        -0.30526989698410034
      ],
      "type": "VEC3"
    },
    {
      "bufferView": 3,
      "byteOffset": 2816,
      "componentType": 5126,
      "count": 65532,
      "max": [
        0.643947958946228,
        0.998538613319397,
        0.9998620748519897,
        1.0
      ],
      "min": [
        -0.7112693190574646,
        -0.3079078495502472,
        -0.9998065829277039,
        1.0
      ],
      "type": "VEC4"
    },
    {
      "bufferView": 1,
      "byteOffset": 5296,
      "componentType": 5126,
      "count": 65532,
      "max": [
        0.9997119903564453,
        1.0
      ],
      "min": [
        5.703740768581156e-08,
        2.0931462785256372e-08
      ],
      "type": "VEC2"
    },
    {
      "bufferView": 0,
      "byteOffset": 4728,
      "componentType": 5125,
      "count": 361458,
      "type": "SCALAR"
    },
    {
      "bufferView": 2,
      "byteOffset": 1588656,
      "componentType": 5126,
      "count": 65532,
      "max": [
        1.551769495010376,
        1.5559027194976807,
        0.10677479952573776
      ],
      "min": [
        -1.5563735961914063,
        -1.5774877071380615,
        -0.07425685226917267
      ],
      "type": "VEC3"
    },
    {
      "bufferView": 2,
      "byteOffset": 2375040,
      "componentType": 5126,
      "count": 65532,
      "max": [
        0.7460785508155823,
        0.7171313166618347,
        0.9999827146530151
      ],
      "min": [
        -0.7386392951011658,
        -0.9674062132835388,
        -0.30526989698410034
      ],
      "type": "VEC3"
    },
    {
      "bufferView": 3,
      "byteOffset": 1051328,
      "componentType": 5126,
      "count": 65532,
      "max": [
        0.623153567314148,
        0.9998825788497925,
        0.9291865825653076,
        1.0
      ],
      "min": [
        -0.32895317673683167,
        -0.053276047110557556,
        -0.7170931696891785,
        1.0
      ],
      "type": "VEC4"
    },
    {
      "bufferView": 1,
      "byteOffset": 529552,
      "componentType": 5126,
      "count": 65532,
      "max": [
        0.9008595943450928,
        0.9014034271240234
      ],
      "min": [
        0.07901953160762787,
        0.10049821436405182
      ],
      "type": "VEC2"
    },
    {
      "bufferView": 0,
      "byteOffset": 1450560,
      "componentType": 5125,
      "count": 363453,
      "type": "SCALAR"
    },
    {
      "bufferView": 2,
      "byteOffset": 3161424,
      "componentType": 5126,
      "count": 56752,
      "max": [
        1.595118522644043,
        1.5914194583892822,
        0.09507665783166885
      ],
      "min": [
        -1.4686083793640137,
        -1.595118522644043,
        -0.21073009073734283
      ],
      "type": "VEC3"
    },
    {
      "bufferView": 2,
      "byteOffset": 3842448,
      "componentType": 5126,
      "count": 56752,
      "max": [
        0.9998656511306763,
        0.9973176717758179,
        1.0
      ],
      "min": [
        -0.990662693977356,
        -0.9998656511306763,
        -0.30526483058929443
      ],
      "type": "VEC3"
    },
    {
      "bufferView": 3,
      "byteOffset": 2099840,
      "componentType": 5126,
      "count": 56752,
      "max": [
        0.6425108313560486,
        0.999997079372406,
        0.9929393529891968,
        1.0
      ],
      "min": [
        -0.6222488284111023,
        -0.23434923589229584,
        -0.9998616576194763,
        1.0
      ],
      "type": "VEC4"
    },
    {
      "bufferView": 1,
      "byteOffset": 1053808,
      "componentType": 5126,
      "count": 56752,
      "max": [
        0.9977633357048035,
        0.9335658550262451
      ],
      "min": [
        0.06695648282766342,
        0.023351896554231644
      ],
      "type": "VEC2"
    },
    {
      "bufferView": 0,
      "byteOffset": 2904372,
      "componentType": 5125,
      "count": 322641,
      "type": "SCALAR"
    }
  ],
  "asset": {
    "extras": {
      "author": "endbored (https://sketchfab.com/endbored)",
      "license": "CC-BY-4.0 (http://creativecommons.org/licenses/by/4.0/)",
      "source": "https://sketchfab.com/3d-models/drink-cup-05be969a565c4327b306c24126577203",
      "title": "Drink Cup"
    },
    "generator": "Sketchfab-15.77.0",
    "version": "2.0"
  },
  "bufferViews": [
    {
      "buffer": 0,
      "byteLength": 4194936,
      "name": "floatBufferViews",
      "target": 34963
    },
    {
      "buffer": 0,
      "byteLength": 1507824,
      "byteOffset": 4194936,
      "byteStride": 8,
      "name": "floatBufferViews",
      "target": 34962
    },
    {
      "buffer": 0,
      "byteLength": 4523472,
      "byteOffset": 5702760,
      "byteStride": 12,
      "name": "floatBufferViews",
      "target": 34962
    },
    {
      "buffer": 0,
      "byteLength": 3007872,
      "byteOffset": 10226232,
      "byteStride": 16,
      "name": "floatBufferViews",
      "target": 34962
    }
  ],
  "buffers": [
    {
      "byteLength": 13234104,
      "uri": "scene.bin"
    }
  ],
  "extensionsUsed": [
    "KHR_materials_specular"
  ],
  "images": [
    {
      "uri": "textures/Material.003_baseColor.png"
    },
    {
      "uri": "textures/Material.002_baseColor.png"
    },
    {
      "uri": "textures/Material.002_normal.png"
    },
    {
      "uri": "textures/Material.001_baseColor.png"
    },
    {
      "uri": "textures/Material.001_normal.png"
    }
  ],
  "materials": [
    {
      "doubleSided": true,
      "extensions": {
        "KHR_materials_specular": {
          "specularColorFactor": [
            1.0,
            1.0,
            1.0
          ],
          "specularFactor": 0.16415839917732009
        }
      },
      "name": "Material.003",
      "pbrMetallicRoughness": {
        "baseColorTexture": {
          "index": 0
        },
        "metallicFactor": 0.0,
        "roughnessFactor": 0.7762796112985322
      }
    },
    {
      "doubleSided": true,
      "name": "Material.002",
      "normalTexture": {
        "index": 2
      },
      "pbrMetallicRoughness": {
        "baseColorTexture": {
          "index": 1
        },
        "metallicFactor": 0.0,
        "roughnessFactor": 0.7935399032831758
      }
    },
    {
      "doubleSided": true,
      "extensions": {
        "KHR_materials_specular": {
          "specularColorFactor": [
            1.0,
            1.0,
            1.0
          ],
          "specularFactor": 0.23082506584398674
        }
      },
      "name": "Material.001",
      "normalTexture": {
        "index": 4,
        "scale": 0.9399159749348959
      },
      "pbrMetallicRoughness": {
        "baseColorTexture": {
          "index": 3
        },
        "metallicFactor": 0.055067490086410986
      }
    }
  ],
  "meshes": [
    {
      "name": "Cylinder_Material.003_0",
      "primitives": [
        {
          "attributes": {
            "NORMAL": 1,
            "POSITION": 0,
            "TEXCOORD_0": 2
          },
          "indices": 3,
          "material": 0,
          "mode": 4
        }
      ]
    },
    {
      "name": "Cylinder.001_Material.002_0",
      "primitives": [
        {
          "attributes": {
            "NORMAL": 5,
            "POSITION": 4,
            "TANGENT": 6,
            "TEXCOORD_0": 7
          },
          "indices": 8,
          "material": 1,
          "mode": 4
        }
      ]
    },
    {
      "name": "Cylinder.002_Material.001_0",
      "primitives": [
        {
          "attributes": {
            "NORMAL": 10,
            "POSITION": 9,
            "TANGENT": 11,
            "TEXCOORD_0": 12
          },
          "indices": 13,
          "material": 2,
          "mode": 4
        }
      ]
    },
    {
      "name": "Cylinder.002_Material.001_0",
      "primitives": [
        {
          "attributes": {
            "NORMAL": 15,
            "POSITION": 14,
            "TANGENT": 16,
            "TEXCOORD_0": 17
          },
          "indices": 18,
          "material": 2,
          "mode": 4
        }
      ]
    },
    {
      "name": "Cylinder.002_Material.001_0",
      "primitives": [
        {
          "attributes": {
            "NORMAL": 20,
            "POSITION": 19,
            "TANGENT": 21,
            "TEXCOORD_0": 22
          },
          "indices": 23,
          "material": 2,
          "mode": 4
        }
      ]
    }
  ],
  "nodes": [
    {
      "children": [
        1
      ],
      "matrix": [
        1.0,
        0.0,
        0.0,
        0.0,
        0.0,
        2.220446049250313e-16,
        -1.0,
        0.0,
        0.0,
        1.0,
        2.220446049250313e-16,
        0.0,
        0.0,
        0.0,
        0.0,
        1.0
      ],
      "name": "Sketchfab_model"
    },
    {
      "children": [
        2
      ],
      "matrix": [
        0.009999999776482582,
        0.0,
        0.0,
        0.0,
        0.0,
        0.0,
        0.009999999776482582,
        0.0,
        0.0,
        -0.009999999776482582,
        0.0,
        0.0,
        0.0,
        0.0,
        0.0,
        1.0
      ],
      "name": "4a0aedde412f4c26aa71d8c7a84e0bfb.fbx"
    },
    {
      "children": [
        3,
        5,
        7
      ],
      "name": "RootNode"
    },
    {
      "children": [
        4
      ],
      "matrix": [
        100.0,
        0.0,
        0.0,
        0.0,
        0.0,
        -1.629206793918314e-05,
        -99.99999999999868,
        0.0,
        0.0,
        99.99999999999868,
        -1.629206793918314e-05,
        0.0,
        0.0,
        263.2926940917969,
        0.0,
        1.0
      ],
      "name": "Cylinder"
    },
    {
      "mesh": 0,
      "name": "Cylinder_Material.003_0"
    },
    {
      "children": [
        6
      ],
      "matrix": [
        13.066583633422852,
        0.0,
        0.0,
        0.0,
        0.0,
        -1.7008243974483397,
        -12.955416018726625,
        0.0,
        0.0,
        128.82625624028427,
        -16.912682643976034,
        0.0,
        0.0,
        501.8323059082031,
        -0.2216959297657013,
        1.0
      ],
      "name": "Cylinder.001"
    },
    {
      "mesh": 1,
      "name": "Cylinder.001_Material.002_0"
    },
    {
      "children": [
        8,
        9,
        10
      ],
      "matrix": [
        100.0,
        0.0,
        0.0,
        0.0,
        0.0,
        -1.629206793918314e-05,
        -99.99999999999868,
        0.0,
        0.0,
        99.99999999999868,
        -1.629206793918314e-05,
        0.0,
        0.0,
        516.9347534179688,
        0.0,
        1.0
      ],
      "name": "Cylinder.002"
    },
    {
      "mesh": 2,
      "name": "Cylinder.002_Material.001_0"
    },
    {
      "mesh": 3,
      "name": "Cylinder.002_Material.001_0"
    },
    {
      "mesh": 4,
      "name": "Cylinder.002_Material.001_0"
    }
  ],
  "samplers": [
    {
      "magFilter": 9729,
      "minFilter": 9987,
      "wrapS": 10497,
      "wrapT": 10497
    }
  ],
  "scene": 0,
  "scenes": [
    {
      "name": "Sketchfab_Scene",
      "nodes": [
        0
      ]
    }
  ],
  "textures": [
    {
      "sampler": 0,
      "source": 0
    },
    {
      "sampler": 0,
      "source": 1
    },
    {
      "sampler": 0,
      "source": 2
    },
    {
      "sampler": 0,
      "source": 3
    },
    {
      "sampler": 0,
      "source": 4
    }
  ]
}
