{
  "accessors": [
    {
      "bufferView": 2,
      "componentType": 5126,
      "count": 13108,
      "max": [
        0.2936039865016937,
        0.1936749964952469,
        0.33387601375579834
      ],
      "min": [
        -0.2625730037689209,
        -0.1936749964952469,
        -0.38514500856399536
      ],
      "type": "VEC3"
    },
    {
      "bufferView": 2,
      "byteOffset": 157296,
      "componentType": 5126,
      "count": 13108,
      "max": [
        0.9999887943267822,
        0.9999990463256836,
        1.0
      ],
      "min": [
        -0.9999887943267822,
        -0.9999977350234985,
        -1.0
      ],
      "type": "VEC3"
    },
    {
      "bufferView": 1,
      "componentType": 5126,
      "count": 13108,
      "max": [
        1.0,
        1.0
      ],
      "min": [
        0.0,
        0.011536999605596066
      ],
      "type": "VEC2"
    },
    {
      "bufferView": 0,
      "componentType": 5125,
      "count": 76608,
      "type": "SCALAR"
    }
  ],
  "asset": {
    "extras": {
      "author": "Lonit (https://sketchfab.com/Lonit)",
      "license": "CC-BY-4.0 (http://creativecommons.org/licenses/by/4.0/)",
      "source": "https://sketchfab.com/3d-models/empty-beer-mug-glass-3ae593f8ec2d48e79618063fc188f178",
      "title": "Empty Beer Mug (glass)"
    },
    "generator": "Sketchfab-12.66.0",
    "version": "2.0"
  },
  "bufferViews": [
    {
      "buffer": 0,
      "byteLength": 306432,
      "name": "floatBufferViews",
      "target": 34963
    },
    {
      "buffer": 0,
      "byteLength": 104864,
      "byteOffset": 306432,
      "byteStride": 8,
      "name": "floatBufferViews",
      "target": 34962
    },
    {
      "buffer": 0,
      "byteLength": 314592,
      "byteOffset": 411296,
      "byteStride": 12,
      "name": "floatBufferViews",
      "target": 34962
    }
  ],
  "buffers": [
    {
      "byteLength": 725888,
      "uri": "scene.bin"
    }
  ],
  "extensionsRequired": [
    "KHR_materials_pbrSpecularGlossiness"
  ],
  "extensionsUsed": [
    "KHR_materials_pbrSpecularGlossiness"
  ],
  "materials": [
    {
      "alphaMode": "BLEND",
      "doubleSided": true,
      "extensions": {
        "KHR_materials_pbrSpecularGlossiness": {
          "diffuseFactor": [
            0.3421997458487618,
            0.3421997458487618,
            0.3421997458487618,
            0.29355836054210827
          ],
          "glossinessFactor": 0.38476095799208365,
          "specularFactor": [
            0.7799722136086435,
            0.7799722136086435,
            0.7799722136086435
          ]
        }
      },
      "name": "glass"
    }
  ],
  "meshes": [
    {
      "name": "Object_0",
      "primitives": [
        {
          "attributes": {
            "NORMAL": 1,
            "POSITION": 0,
            "TEXCOORD_0": 2
          },
          "indices": 3,
          "material": 0,
          "mode": 4
        }
      ]
    }
  ],
  "nodes": [
    {
      "children": [
        1
      ],
      "matrix": [
        1.0,
        0.0,
        0.0,
        0.0,
        0.0,
        2.220446049250313e-16,
        -1.0,
        0.0,
        0.0,
        1.0,
        2.220446049250313e-16,
        0.0,
        0.0,
        0.0,
        0.0,
        1.0
      ],
      "name": "Sketchfab_model"
    },
    {
      "children": [
        2
      ],
      "name": "beermug.obj.cleaner.materialmerger.gles"
    },
    {
      "mesh": 0,
      "name": "Object_2"
    }
  ],
  "scene": 0,
  "scenes": [
    {
      "name": "Sketchfab_Scene",
      "nodes": [
        0
      ]
    }
  ]
}
