{
  "accessors": [
    {
      "bufferView": 2,
      "componentType": 5126,
      "count": 5601,
      "max": [
        4.243589878082275,
        0.8974699974060059,
        5.483580112457275
      ],
      "min": [
        -4.282879829406738,
        -7.629000186920166,
        -5.235770225524902
      ],
      "type": "VEC3"
    },
    {
      "bufferView": 2,
      "byteOffset": 67212,
      "componentType": 5126,
      "count": 5601,
      "max": [
        0.9947791695594788,
        0.9993111491203308,
        1.0
      ],
      "min": [
        -0.9995711445808411,
        -0.9993144869804382,
        -1.0
      ],
      "type": "VEC3"
    },
    {
      "bufferView": 3,
      "componentType": 5126,
      "count": 5601,
      "max": [
        0.9969114661216736,
        0.9999344944953918,
        0.9999136328697205,
        -1.0
      ],
      "min": [
        -0.9846225380897522,
        -0.9996311664581299,
        -0.9972953200340271,
        -1.0
      ],
      "type": "VEC4"
    },
    {
      "bufferView": 1,
      "componentType": 5126,
      "count": 5601,
      "max": [
        0.9988099932670593,
        0.997759997844696
      ],
      "min": [
        0.00406000018119812,
        -0.001940011978149414
      ],
      "type": "VEC2"
    },
    {
      "bufferView": 0,
      "componentType": 5125,
      "count": 26880,
      "type": "SCALAR"
    }
  ],
  "asset": {
    "extras": {
      "author": "quentin.cdt (https://sketchfab.com/quentin.cdt)",
      "license": "CC-BY-4.0 (http://creativecommons.org/licenses/by/4.0/)",
      "source": "https://sketchfab.com/3d-models/mcdonalds-cup-3d9f4b081ffb409084eda00ef9aeeec7",
      "title": "McDonald's Cup"
    },
    "generator": "Sketchfab-13.28.0",
    "version": "2.0"
  },
  "bufferViews": [
    {
      "buffer": 0,
      "byteLength": 107520,
      "name": "floatBufferViews",
      "target": 34963
    },
    {
      "buffer": 0,
      "byteLength": 44808,
      "byteOffset": 107520,
      "byteStride": 8,
      "name": "floatBufferViews",
      "target": 34962
    },
    {
      "buffer": 0,
      "byteLength": 134424,
      "byteOffset": 152328,
      "byteStride": 12,
      "name": "floatBufferViews",
      "target": 34962
    },
    {
      "buffer": 0,
      "byteLength": 89616,
      "byteOffset": 286752,
      "byteStride": 16,
      "name": "floatBufferViews",
      "target": 34962
    }
  ],
  "buffers": [
    {
      "byteLength": 376368,
      "uri": "scene.bin"
    }
  ],
  "images": [
    {
      "uri": "textures/mcdo_baseColor.png"
    },
    {
      "uri": "textures/mcdo_normal.jpeg"
    }
  ],
  "materials": [
    {
      "doubleSided": true,
      "name": "mcdo",
      "normalTexture": {
        "index": 1,
        "scale": 0.117
      },
      "pbrMetallicRoughness": {
        "baseColorTexture": {
          "index": 0
        },
        "metallicFactor": 0.0
      }
    }
  ],
  "meshes": [
    {
      "name": "Object_0",
      "primitives": [
        {
          "attributes": {
            "NORMAL": 1,
            "POSITION": 0,
            "TANGENT": 2,
            "TEXCOORD_0": 3
          },
          "indices": 4,
          "material": 0,
          "mode": 4
        }
      ]
    }
  ],
  "nodes": [
    {
      "children": [
        1
      ],
      "matrix": [
        1.0,
        0.0,
        0.0,
        0.0,
        0.0,
        2.220446049250313e-16,
        -1.0,
        0.0,
        0.0,
        1.0,
        2.220446049250313e-16,
        0.0,
        0.0,
        0.0,
        0.0,
        1.0
      ],
      "name": "Sketchfab_model"
    },
    {
      "children": [
        2
      ],
      "name": "root"
    },
    {
      "children": [
        3
      ],
      "matrix": [
        1.0,
        0.0,
        0.0,
        0.0,
        0.0,
        2.220446049250313e-16,
        1.0,
        0.0,
        0.0,
        -1.0,
        2.220446049250313e-16,
        0.0,
        0.0,
        0.0,
        0.0,
        1.0
      ],
      "name": "GLTF_SceneRootNode"
    },
    {
      "children": [
        4
      ],
      "matrix": [
        0.5552271008491516,
        0.0,
        -0.0,
        0.0,
        -0.0,
        -9.360429163797385e-08,
        -0.5552271008491437,
        0.0,
        0.0,
        0.5552271008491437,
        -9.360429163797385e-08,
        0.0,
        0.0,
        2.9217255115509033,
        -1.9119349718093872,
        1.0
      ],
      "name": "mcdo_goblet_0"
    },
    {
      "mesh": 0,
      "name": "Object_4"
    }
  ],
  "samplers": [
    {
      "magFilter": 9729,
      "minFilter": 9987,
      "wrapS": 10497,
      "wrapT": 10497
    }
  ],
  "scene": 0,
  "scenes": [
    {
      "name": "Sketchfab_Scene",
      "nodes": [
        0
      ]
    }
  ],
  "textures": [
    {
      "sampler": 0,
      "source": 0
    },
    {
      "sampler": 0,
      "source": 1
    }
  ]
}
