{
  "accessors": [
    {
      "bufferView": 2,
      "componentType": 5126,
      "count": 49754,
      "max": [
        2.8103034496307373,
        3.9321703910827637,
        1.568446397781372
      ],
      "min": [
        -1.5684462785720825,
        6.931664302101126e-06,
        -1.568446159362793
      ],
      "type": "VEC3"
    },
    {
      "bufferView": 2,
      "byteOffset": 597048,
      "componentType": 5126,
      "count": 49754,
      "max": [
        0.9998539686203003,
        1.0,
        1.0
      ],
      "min": [
        -0.9999886751174927,
        -1.0,
        -0.9999860525131226
      ],
      "type": "VEC3"
    },
    {
      "bufferView": 3,
      "componentType": 5126,
      "count": 49754,
      "max": [
        0.999527633190155,
        0.9598842263221741,
        0.9963821172714233,
        1.0
      ],
      "min": [
        -0.9999943971633911,
        -0.9990010261535645,
        -0.9999917149543762,
        -1.0
      ],
      "type": "VEC4"
    },
    {
      "bufferView": 1,
      "componentType": 5126,
      "count": 49754,
      "max": [
        0.9164976477622986,
        0.9992079138755798
      ],
      "min": [
        0.0003632533480413258,
        0.00024527954519726336
      ],
      "type": "VEC2"
    },
    {
      "bufferView": 1,
      "byteOffset": 398032,
      "componentType": 5126,
      "count": 49754,
      "max": [
        0.9164976477622986,
        0.9992079138755798
      ],
      "min": [
        0.0003632533480413258,
        0.00024527954519726336
      ],
      "type": "VEC2"
    },
    {
      "bufferView": 1,
      "byteOffset": 796064,
      "componentType": 5126,
      "count": 49754,
      "max": [
        0.9164976477622986,
        0.9992079138755798
      ],
      "min": [
        0.0003632533480413258,
        0.00024527954519726336
      ],
      "type": "VEC2"
    },
    {
      "bufferView": 1,
      "byteOffset": 1194096,
      "componentType": 5126,
      "count": 49754,
      "max": [
        0.9164976477622986,
        0.9992079138755798
      ],
      "min": [
        0.0003632533480413258,
        0.00024527954519726336
      ],
      "type": "VEC2"
    },
    {
      "bufferView": 0,
      "componentType": 5125,
      "count": 273984,
      "type": "SCALAR"
    }
  ],
  "asset": {
    "extras": {
      "author": "pavito (https://sketchfab.com/pavito)",
      "license": "CC-BY-4.0 (http://creativecommons.org/licenses/by/4.0/)",
      "source": "https://sketchfab.com/3d-models/coffe-cup-42e3296a290843819b437df123569a09",
      "title": "Coffe Cup"
    },
    "generator": "Sketchfab-12.67.0",
    "version": "2.0"
  },
  "bufferViews": [
    {
      "buffer": 0,
      "byteLength": 1095936,
      "name": "floatBufferViews",
      "target": 34963
    },
    {
      "buffer": 0,
      "byteLength": 1592128,
      "byteOffset": 1095936,
      "byteStride": 8,
      "name": "floatBufferViews",
      "target": 34962
    },
    {
      "buffer": 0,
      "byteLength": 1194096,
      "byteOffset": 2688064,
      "byteStride": 12,
      "name": "floatBufferViews",
      "target": 34962
    },
    {
      "buffer": 0,
      "byteLength": 796064,
      "byteOffset": 3882160,
      "byteStride": 16,
      "name": "floatBufferViews",
      "target": 34962
    }
  ],
  "buffers": [
    {
      "byteLength": 4678224,
      "uri": "scene.bin"
    }
  ],
  "images": [
    {
      "uri": "textures/Taza_baseColor.png"
    },
    {
      "uri": "textures/Taza_metallicRoughness.png"
    },
    {
      "uri": "textures/Taza_normal.png"
    }
  ],
  "materials": [
    {
      "doubleSided": true,
      "name": "Taza",
      "normalTexture": {
        "index": 2
      },
      "pbrMetallicRoughness": {
        "baseColorTexture": {
          "index": 0
        },
        "metallicFactor": 0.0,
        "metallicRoughnessTexture": {
          "index": 1
        }
      }
    }
  ],
  "meshes": [
    {
      "name": "Object_0",
      "primitives": [
        {
          "attributes": {
            "NORMAL": 1,
            "POSITION": 0,
            "TANGENT": 2,
            "TEXCOORD_0": 3,
            "TEXCOORD_1": 4,
            "TEXCOORD_2": 5,
            "TEXCOORD_3": 6
          },
          "indices": 7,
          "material": 0,
          "mode": 4
        }
      ]
    }
  ],
  "nodes": [
    {
      "children": [
        1
      ],
      "matrix": [
        1.0,
        0.0,
        0.0,
        0.0,
        0.0,
        2.220446049250313e-16,
        -1.0,
        0.0,
        0.0,
        1.0,
        2.220446049250313e-16,
        0.0,
        0.0,
        0.0,
        0.0,
        1.0
      ],
      "name": "Sketchfab_model"
    },
    {
      "children": [
        2
      ],
      "name": "root"
    },
    {
      "children": [
        3
      ],
      "matrix": [
        1.0,
        0.0,
        0.0,
        0.0,
        0.0,
        2.220446049250313e-16,
        1.0,
        0.0,
        0.0,
        -1.0,
        2.220446049250313e-16,
        0.0,
        0.0,
        0.0,
        0.0,
        1.0
      ],
      "name": "GLTF_SceneRootNode"
    },
    {
      "children": [
        4
      ],
      "name": "Circle_0"
    },
    {
      "mesh": 0,
      "name": "Object_4"
    }
  ],
  "samplers": [
    {
      "magFilter": 9729,
      "minFilter": 9987,
      "wrapS": 10497,
      "wrapT": 10497
    }
  ],
  "scene": 0,
  "scenes": [
    {
      "name": "Sketchfab_Scene",
      "nodes": [
        0
      ]
    }
  ],
  "textures": [
    {
      "sampler": 0,
      "source": 0
    },
    {
      "sampler": 0,
      "source": 1
    },
    {
      "sampler": 0,
      "source": 2
    }
  ]
}
