{
  "accessors": [
    {
      "bufferView": 3,
      "componentType": 5126,
      "count": 1514,
      "max": [
        0.039733998477458954,
        0.15617555379867554,
        0.0364999994635582
      ],
      "min": [
        -0.03973400220274925,
        -0.11499999463558197,
        -0.0364999994635582
      ],
      "type": "VEC3"
    },
    {
      "bufferView": 3,
      "byteOffset": 18168,
      "componentType": 5126,
      "count": 1514,
      "max": [
        1.0,
        1.0,
        1.0
      ],
      "min": [
        -1.0,
        -1.0,
        -1.0
      ],
      "type": "VEC3"
    },
    {
      "bufferView": 4,
      "componentType": 5126,
      "count": 1514,
      "max": [
        1.0,
        1.0,
        1.0,
        1.0
      ],
      "min": [
        -1.0,
        -0.9999769330024719,
        -1.0,
        1.0
      ],
      "type": "VEC4"
    },
    {
      "bufferView": 2,
      "componentType": 5126,
      "count": 1514,
      "max": [
        0.9989916086196899,
        0.9985821843147278
      ],
      "min": [
        0.0010086195543408394,
        0.0010063262889161706
      ],
      "type": "VEC2"
    },
    {
      "bufferView": 1,
      "componentType": 5125,
      "count": 5520,
      "type": "SCALAR"
    },
    {
      "bufferView": 5,
      "componentType": 5126,
      "count": 3,
      "max": [
        1.0,
        0.0,
        2.4276005206047557e-07,
        0.0,
        4.3414623007720365e-09,
        1.0,
        0.0,
        0.0,
        0.0,
        1.8848812417013132e-17,
        1.0,
        0.0,
        4.656617313969491e-10,
        0.11243198812007904,
        0.0,
        1.0
      ],
      "min": [
        1.0,
        -4.3414623007720365e-09,
        0.0,
        0.0,
        -8.567240629620736e-17,
        1.0,
        -6.964425924849138e-09,
        0.0,
        -2.4276005206047557e-07,
        -6.964426813027558e-09,
        1.0,
        0.0,
        0.0,
        -0.10208627581596375,
        -1.9014501084768654e-09,
        1.0
      ],
      "type": "MAT4"
    },
    {
      "bufferView": 0,
      "componentType": 5123,
      "count": 1514,
      "type": "VEC4"
    },
    {
      "bufferView": 4,
      "byteOffset": 24224,
      "componentType": 5126,
      "count": 1514,
      "max": [
        1.0,
        0.0,
        0.0,
        0.0
      ],
      "min": [
        1.0,
        0.0,
        0.0,
        0.0
      ],
      "type": "VEC4"
    }
  ],
  "asset": {
    "extras": {
      "author": "Igrium (https://sketchfab.com/Sam54123)",
      "license": "CC-BY-4.0 (http://creativecommons.org/licenses/by/4.0/)",
      "source": "https://sketchfab.com/3d-models/water-bottle-885543a7679c4026abbd6499185caf08",
      "title": "Water Bottle"
    },
    "generator": "Sketchfab-14.39.1",
    "version": "2.0"
  },
  "bufferViews": [
    {
      "buffer": 0,
      "byteLength": 12112,
      "byteStride": 8,
      "name": "shortBufferViews",
      "target": 34962
    },
    {
      "buffer": 0,
      "byteLength": 22080,
      "byteOffset": 12112,
      "name": "floatBufferViews",
      "target": 34963
    },
    {
      "buffer": 0,
      "byteLength": 12112,
      "byteOffset": 34192,
      "byteStride": 8,
      "name": "floatBufferViews",
      "target": 34962
    },
    {
      "buffer": 0,
      "byteLength": 36336,
      "byteOffset": 46304,
      "byteStride": 12,
      "name": "floatBufferViews",
      "target": 34962
    },
    {
      "buffer": 0,
      "byteLength": 48448,
      "byteOffset": 82640,
      "byteStride": 16,
      "name": "floatBufferViews",
      "target": 34962
    },
    {
      "buffer": 0,
      "byteLength": 192,
      "byteOffset": 131088,
      "name": "floatBufferViews"
    }
  ],
  "buffers": [
    {
      "byteLength": 131280,
      "uri": "scene.bin"
    }
  ],
  "images": [
    {
      "uri": "textures/water_bottle_baseColor.png"
    },
    {
      "uri": "textures/water_bottle_metallicRoughness.png"
    },
    {
      "uri": "textures/water_bottle_normal.png"
    }
  ],
  "materials": [
    {
      "doubleSided": true,
      "name": "water_bottle",
      "normalTexture": {
        "index": 2
      },
      "occlusionTexture": {
        "index": 1
      },
      "pbrMetallicRoughness": {
        "baseColorTexture": {
          "index": 0
        },
        "metallicRoughnessTexture": {
          "index": 1
        }
      }
    }
  ],
  "meshes": [
    {
      "name": "Object_0",
      "primitives": [
        {
          "attributes": {
            "JOINTS_0": 6,
            "NORMAL": 1,
            "POSITION": 0,
            "TANGENT": 2,
            "TEXCOORD_0": 3,
            "TEXCOORD_1": 3,
            "TEXCOORD_2": 3,
            "TEXCOORD_3": 3,
            "TEXCOORD_4": 3,
            "WEIGHTS_0": 7
          },
          "indices": 4,
          "material": 0,
          "mode": 4
        }
      ]
    }
  ],
  "nodes": [
    {
      "children": [
        1
      ],
      "matrix": [
        1.0,
        0.0,
        0.0,
        0.0,
        0.0,
        2.220446049250313e-16,
        -1.0,
        0.0,
        0.0,
        1.0,
        2.220446049250313e-16,
        0.0,
        0.0,
        0.0,
        0.0,
        1.0
      ],
      "name": "Sketchfab_model"
    },
    {
      "children": [
        2
      ],
      "name": "root"
    },
    {
      "children": [
        3
      ],
      "matrix": [
        1.0,
        0.0,
        0.0,
        0.0,
        0.0,
        2.220446049250313e-16,
        1.0,
        0.0,
        0.0,
        -1.0,
        2.220446049250313e-16,
        0.0,
        0.0,
        0.0,
        0.0,
        1.0
      ],
      "name": "GLTF_SceneRootNode"
    },
    {
      "children": [
        4
      ],
      "name": "water_bottle_armature_3"
    },
    {
      "children": [
        5,
        7,
        6
      ],
      "name": "GLTF_created_0"
    },
    {
      "children": [
        8
      ],
      "name": "GLTF_created_0_rootJoint"
    },
    {
      "name": "water_bottle_2"
    },
    {
      "mesh": 0,
      "name": "Object_7",
      "skin": 0
    },
    {
      "children": [
        9
      ],
      "name": "base_1",
      "rotation": [
        1.7411064812122845e-09,
        1.2138002603023779e-07,
        2.1707307062968084e-09,
        1.0
      ],
      "translation": [
        4.656612873077393e-10,
        -0.11243198812007904,
        4.0745362639427185e-10
      ]
    },
    {
      "name": "handle_0",
      "rotation": [
        -0.49476999044418335,
        -8.124083628047174e-10,
        -1.2092279177977616e-07,
        0.8690239787101746
      ],
      "translation": [
        1.0248622205744204e-17,
        0.21451826393604279,
        -2.0216558868592013e-18
      ]
    }
  ],
  "samplers": [
    {
      "magFilter": 9729,
      "minFilter": 9987,
      "wrapS": 10497,
      "wrapT": 10497
    }
  ],
  "scene": 0,
  "scenes": [
    {
      "name": "Sketchfab_Scene",
      "nodes": [
        0
      ]
    }
  ],
  "skins": [
    {
      "inverseBindMatrices": 5,
      "joints": [
        5,
        8,
        9
      ],
      "skeleton": 5
    }
  ],
  "textures": [
    {
      "sampler": 0,
      "source": 0
    },
    {
      "sampler": 0,
      "source": 1
    },
    {
      "sampler": 0,
      "source": 2
    }
  ]
}
