{
  "accessors": [
    {
      "bufferView": 2,
      "componentType": 5126,
      "count": 5124,
      "max": [
        0.7077903151512146,
        4.480930328369141,
        0.7077903151512146
      ],
      "min": [
        -0.7077903151512146,
        -0.039986610412597656,
        -0.7077903151512146
      ],
      "type": "VEC3"
    },
    {
      "bufferView": 2,
      "byteOffset": 61488,
      "componentType": 5126,
      "count": 5124,
      "max": [
        1.0,
        1.0,
        1.0
      ],
      "min": [
        -1.0,
        -1.0,
        -1.0
      ],
      "type": "VEC3"
    },
    {
      "bufferView": 1,
      "componentType": 5126,
      "count": 5124,
      "max": [
        0.6746581196784973,
        0.9708104729652405
      ],
      "min": [
        0.3253418803215027,
        0.044991135597229004
      ],
      "type": "VEC2"
    },
    {
      "bufferView": 0,
      "componentType": 5125,
      "count": 30720,
      "type": "SCALAR"
    },
    {
      "bufferView": 2,
      "byteOffset": 122976,
      "componentType": 5126,
      "count": 2146,
      "max": [
        0.3153629004955292,
        4.4825263023376465,
        0.314876914024353
      ],
      "min": [
        -0.30938154458999634,
        3.532430648803711,
        -0.3098675310611725
      ],
      "type": "VEC3"
    },
    {
      "bufferView": 2,
      "byteOffset": 148728,
      "componentType": 5126,
      "count": 2146,
      "max": [
        0.9999772310256958,
        1.0,
        0.9999772310256958
      ],
      "min": [
        -0.9999772310256958,
        -1.0,
        -0.9999772310256958
      ],
      "type": "VEC3"
    },
    {
      "bufferView": 1,
      "byteOffset": 40992,
      "componentType": 5126,
      "count": 2146,
      "max": [
        0.6081304550170898,
        0.2806999087333679
      ],
      "min": [
        0.4087195098400116,
        0.027984142303466797
      ],
      "type": "VEC2"
    },
    {
      "bufferView": 0,
      "byteOffset": 122880,
      "componentType": 5125,
      "count": 12864,
      "type": "SCALAR"
    },
    {
      "bufferView": 2,
      "byteOffset": 174480,
      "componentType": 5126,
      "count": 386,
      "max": [
        0.465240478515625,
        2.271806478500366,
        0.6838290095329285
      ],
      "min": [
        -0.6833832263946533,
        0.4155759811401367,
        -0.6838423013687134
      ],
      "type": "VEC3"
    },
    {
      "bufferView": 2,
      "byteOffset": 179112,
      "componentType": 5126,
      "count": 386,
      "max": [
        1.0,
        0.8270012736320496,
        1.0
      ],
      "min": [
        -1.0,
        -0.7677046656608582,
        -1.0
      ],
      "type": "VEC3"
    },
    {
      "bufferView": 1,
      "byteOffset": 58160,
      "componentType": 5126,
      "count": 386,
      "max": [
        1.001275897026062,
        1.0003646612167358
      ],
      "min": [
        0.0017370425630360842,
        -0.0018963813781738281
      ],
      "type": "VEC2"
    },
    {
      "bufferView": 0,
      "byteOffset": 174336,
      "componentType": 5125,
      "count": 2304,
      "type": "SCALAR"
    },
    {
      "bufferView": 2,
      "byteOffset": 183744,
      "componentType": 5126,
      "count": 1504,
      "max": [
        0.6304174065589905,
        3.6205177307128906,
        0.6312186121940613
      ],
      "min": [
        -0.6304174065589905,
        -0.03333728387951851,
        -0.6312186121940613
      ],
      "type": "VEC3"
    },
    {
      "bufferView": 2,
      "byteOffset": 201792,
      "componentType": 5126,
      "count": 1504,
      "max": [
        1.0,
        0.87740159034729,
        1.0
      ],
      "min": [
        -1.0,
        -1.0,
        -1.0
      ],
      "type": "VEC3"
    },
    {
      "bufferView": 1,
      "byteOffset": 61248,
      "componentType": 5126,
      "count": 1504,
      "max": [
        0.6686338782310486,
        0.9535199999809265
      ],
      "min": [
        0.3313661217689514,
        0.25044405460357666
      ],
      "type": "VEC2"
    },
    {
      "bufferView": 0,
      "byteOffset": 183552,
      "componentType": 5125,
      "count": 9012,
      "type": "SCALAR"
    }
  ],
  "asset": {
    "extras": {
      "author": "Biankk_ (https://sketchfab.com/monica.2602.bianca)",
      "license": "SKETCHFAB Standard (https://sketchfab.com/licenses)",
      "source": "https://sketchfab.com/3d-models/jack-daniels-f752d4158fa947b597ea38885a1ea23a",
      "title": "JACK_DANIELS"
    },
    "generator": "Sketchfab-16.59.0",
    "version": "2.0"
  },
  "bufferViews": [
    {
      "buffer": 0,
      "byteLength": 219600,
      "name": "floatBufferViews",
      "target": 34963
    },
    {
      "buffer": 0,
      "byteLength": 73280,
      "byteOffset": 219600,
      "byteStride": 8,
      "name": "floatBufferViews",
      "target": 34962
    },
    {
      "buffer": 0,
      "byteLength": 219840,
      "byteOffset": 292880,
      "byteStride": 12,
      "name": "floatBufferViews",
      "target": 34962
    }
  ],
  "buffers": [
    {
      "byteLength": 512720,
      "uri": "scene.bin"
    }
  ],
  "images": [
    {
      "uri": "textures/material_baseColor.jpeg"
    },
    {
      "uri": "textures/LABEL_baseColor.jpeg"
    }
  ],
  "materials": [
    {
      "alphaMode": "BLEND",
      "doubleSided": true,
      "name": "GLASS",
      "pbrMetallicRoughness": {
        "baseColorFactor": [
          0.938672,
          0.198068,
          0.0152083,
          0.322727
        ],
        "roughnessFactor": 0.0
      }
    },
    {
      "doubleSided": true,
      "name": "material",
      "pbrMetallicRoughness": {
        "baseColorTexture": {
          "index": 0
        },
        "metallicFactor": 0.345455,
        "roughnessFactor": 0.381818
      }
    },
    {
      "doubleSided": true,
      "name": "LABEL",
      "pbrMetallicRoughness": {
        "baseColorTexture": {
          "index": 1
        },
        "metallicFactor": 0.0,
        "roughnessFactor": 0.440909
      }
    },
    {
      "alphaMode": "BLEND",
      "doubleSided": true,
      "name": "LIQUID",
      "pbrMetallicRoughness": {
        "baseColorFactor": [
          0.93786,
          0.187118,
          0.0,
          0.254545
        ],
        "metallicFactor": 0.436364,
        "roughnessFactor": 0.822727
      }
    }
  ],
  "meshes": [
    {
      "name": "Object_0",
      "primitives": [
        {
          "attributes": {
            "NORMAL": 1,
            "POSITION": 0,
            "TEXCOORD_0": 2
          },
          "indices": 3,
          "material": 0,
          "mode": 4
        }
      ]
    },
    {
      "name": "Object_1",
      "primitives": [
        {
          "attributes": {
            "NORMAL": 5,
            "POSITION": 4,
            "TEXCOORD_0": 6
          },
          "indices": 7,
          "material": 1,
          "mode": 4
        }
      ]
    },
    {
      "name": "Object_2",
      "primitives": [
        {
          "attributes": {
            "NORMAL": 9,
            "POSITION": 8,
            "TEXCOORD_0": 10
          },
          "indices": 11,
          "material": 2,
          "mode": 4
        }
      ]
    },
    {
      "name": "Object_3",
      "primitives": [
        {
          "attributes": {
            "NORMAL": 13,
            "POSITION": 12,
            "TEXCOORD_0": 14
          },
          "indices": 15,
          "material": 3,
          "mode": 4
        }
      ]
    }
  ],
  "nodes": [
    {
      "children": [
        1
      ],
      "matrix": [
        1.0,
        0.0,
        0.0,
        0.0,
        0.0,
        2.220446049250313e-16,
        -1.0,
        0.0,
        0.0,
        1.0,
        2.220446049250313e-16,
        0.0,
        0.0,
        0.0,
        0.0,
        1.0
      ],
      "name": "Sketchfab_model"
    },
    {
      "children": [
        2
      ],
      "name": "root"
    },
    {
      "children": [
        3
      ],
      "matrix": [
        1.0,
        0.0,
        0.0,
        0.0,
        0.0,
        2.220446049250313e-16,
        1.0,
        0.0,
        0.0,
        -1.0,
        2.220446049250313e-16,
        0.0,
        0.0,
        0.0,
        0.0,
        1.0
      ],
      "name": "GLTF_SceneRootNode"
    },
    {
      "children": [
        4,
        5,
        7,
        9
      ],
      "name": "GLASS_3"
    },
    {
      "mesh": 0,
      "name": "Object_4"
    },
    {
      "children": [
        6
      ],
      "name": "CAP_0"
    },
    {
      "mesh": 1,
      "name": "Object_6"
    },
    {
      "children": [
        8
      ],
      "name": "LABEL_1"
    },
    {
      "mesh": 2,
      "name": "Object_8"
    },
    {
      "children": [
        10
      ],
      "name": "LIQUID_2"
    },
    {
      "mesh": 3,
      "name": "Object_10"
    }
  ],
  "samplers": [
    {
      "magFilter": 9729,
      "minFilter": 9987,
      "wrapS": 10497,
      "wrapT": 10497
    }
  ],
  "scene": 0,
  "scenes": [
    {
      "name": "Sketchfab_Scene",
      "nodes": [
        0
      ]
    }
  ],
  "textures": [
    {
      "sampler": 0,
      "source": 0
    },
    {
      "sampler": 0,
      "source": 1
    }
  ]
}
